. 
 
http://www.torrenting.com          :     Once & For all ;)


               www . Torrenting . Com 

(((((((((((((= Enjoy No RAR releases =))))))))))))))))))))


...................................NFO:....................................

.                                                                                                     
       
     
     
       
       
     
     
                                         
                                         
                EXVID                    
                                         
         
                                         
         Filled the Archives             
                                         
         
                                         
                With:                    
                                         
         
                                         
                                    
     E240                           
                                    
     SP               (C) 2009      
                                         
     
     
     
                                                                                  
                                                                                   
             Never.Talk.To.Stranges.1995.iNTERNAL.DVDRip.XviD-EXViDiNT              
                                                                                   
                                                                                  
     
                                                                                               
EXViD aims to iNTERNAL those releases which have been lost in the archives.
EXViD aims to PRE non-internal releases which have poor sources and are likely skipped by others. 
http://www.imdb.com/title/tt0113965/
Subtitles: EN, ES, PT, ZH, KO, TH
Date: 2012.02

Director: Peter Hall

Genres: Crime | Drama | Romance | Thriller

Plot:
Sarah Taylor, a police psychologist, meets a mysterious and seductive young man, Tony Ramirez,
and falls in love with him. As a cause of this relationship she changes her personality when she
begins to receive anonymous telefon calls.

Cast:
Rebecca De Mornay	...	Dr. Sarah Taylor
Antonio Banderas	...	Tony Ramirez
Dennis Miller	...	Cliff Raddison
Len Cariou	...	Henry Taylor
Harry Dean Stanton	...	Max Cheski
Eugene Lipinski	...	Dudakoff
Martha Burns	...	Maura
Beau Starr	...	Grogan
Phillip Jarrett	...	Spatz
Tim Kelleher	...	Wabash
Emma Corosky	...	Young Sarah
Susan Coyne	...	Alison
Joseph R. Gannascoli	...	Carnival Attendant
Reg Dreger	...	Flight Attendant
Frances Hyland	...	Mrs. Slotnick

Stats:
Format                                   : AVI
Format/Info                              : Audio Video Interleave
File size                                : 702 MiB
Duration                                 : 1h 26mn
Overall bit rate mode                    : Variable
Overall bit rate                         : 1 140 Kbps
Writing library                          : VirtualDub build 32842/release

Video
ID                                       : 0
Format                                   : MPEG-4 Visual
Format profile                           : Advanced Simple@L5
Format settings, BVOP                    : 2
Format settings, QPel                    : No
Format settings, GMC                     : No warppoints
Format settings, Matrix                  : Default (H.263)
Codec ID                                 : XVID
Codec ID/Hint                            : XviD
Duration                                 : 1h 26mn
Bit rate                                 : 993 Kbps
Width                                    : 640 pixels
Height                                   : 352 pixels
Display aspect ratio                     : 16:9
Frame rate                               : 23.976 fps
Color space                              : YUV
Chroma subsampling                       : 4:2:0
Bit depth                                : 8 bits
Scan type                                : Progressive
Compression mode                         : Lossy
Bits/(Pixel*Frame)                       : 0.184
Stream size                              : 611 MiB (87%)
Writing library                          : XviD 64

Audio
ID                                       : 1
Format                                   : MPEG Audio
Format version                           : Version 1
Format profile                           : Layer 3
Mode                                     : Joint stereo
Mode extension                           : MS Stereo
Codec ID                                 : 55
Codec ID/Hint                            : MP3
Duration                                 : 1h 26mn
Bit rate mode                            : Variable
Bit rate                                 : 134 Kbps
Channel(s)                               : 2 channels
Sampling rate                            : 48.0 KHz
Compression mode                         : Lossy
Delay relative to video                  : 144ms
Stream size                              : 82.7 MiB (12%)
Alignment                                : Split accross interleaves
Interleave, duration                     : 24 ms (0.58 video frame)
Interleave, preload duration             : 601 ms



Release notes:
Enjoy!

Looking for:
75TB+ Archives
DUTCH/FLEMiSH Archives
                                                                                                    
Greets: CRBS EPiSODE FiCO FLS iLS KLASSiGER LiPSYNC MADE NODLABS RUNNER SPRiNTER      
   

                                                                    ASCII DONE BY XX^NFO 2oo9     
 

RLS-Crc: 415243414445:42EECD90